<svg width="96" height="96" xmlns="http://www.w3.org/2000/svg" xmlns:xlink="http://www.w3.org/1999/xlink" xml:space="preserve" overflow="hidden"><defs><clipPath id="clip0"><rect x="688" y="312" width="96" height="96"/></clipPath></defs><g clip-path="url(#clip0)" transform="translate(-688 -312)"><path d="M714 348C714 335.9 723.9 326 736 326 748.1 326 758 335.9 758 348 758 360.1 748.1 370 736 370 723.9 370 714 360.1 714 348ZM764 348C764 332.6 751.4 320 736 320 720.6 320 708 332.6 708 348 708 362.4 719 374.3 733 375.8L733 386 725 386 725 392 733 392 733 400 739 400 739 392 747 392 747 386 739 386 739 375.8C753 374.3 764 362.4 764 348Z"/></g></svg>