<svg width="96" height="96" xmlns="http://www.w3.org/2000/svg" xmlns:xlink="http://www.w3.org/1999/xlink" xml:space="preserve" overflow="hidden"><defs><clipPath id="clip0"><rect x="592" y="312" width="96" height="96"/></clipPath></defs><g clip-path="url(#clip0)" transform="translate(-592 -312)"><path d="M615.8 344.6C604.9 355.5 604.9 373.3 615.8 384.2 626.7 395.1 644.5 395.1 655.4 384.2 665.6 374 666.3 357.8 657.4 346.8L666.7 337.5 672.4 343.2 672.4 327.6 656.8 327.6 662.5 333.3 653.2 342.6C642.2 333.7 626 334.4 615.8 344.6ZM651.2 379.9C642.6 388.5 628.7 388.5 620.1 379.9 611.5 371.3 611.5 357.4 620.1 348.8 628.7 340.2 642.6 340.2 651.2 348.8 659.8 357.4 659.7 371.4 651.2 379.9Z"/></g></svg>